<svg width="146" height="36" viewBox="0 0 146 36" fill="none" xmlns="http://www.w3.org/2000/svg">
<path d="M25.4231 12.9255V2.92922C25.4231 1.08212 23.9258 -0.216829 22.0786 0.0301146L16.0572 0.831852L9.367 1.72218L3.34567 2.52392C1.4973 2.76865 0 4.46625 0 6.31334V16.3085C1.86941 16.0593 3.38444 17.3727 3.38444 19.2419C3.38444 21.1112 1.86941 22.8276 0 23.0756V33.0708C0 34.9179 1.4973 36.2168 3.34567 35.9699L8.75679 35.2501L16.6664 34.197L22.0775 33.4772C23.9247 33.2314 25.422 31.5349 25.422 29.6867V19.6915C23.5537 19.9407 22.0376 18.6273 22.0376 16.7581C22.0376 14.8888 23.5526 13.1724 25.422 12.9244L25.4231 12.9255ZM12.7116 4.79292C14.406 4.56702 15.7804 5.75855 15.7804 7.45283C15.7804 9.14711 14.4071 10.7041 12.7116 10.9289C11.0171 11.1548 9.64276 9.96324 9.64276 8.26896C9.64276 6.57468 11.016 5.01772 12.7116 4.79292ZM15.8535 30.3765C15.8535 30.6047 15.6685 30.8151 15.4393 30.845L12.4956 31.237C10.8798 31.4518 9.56967 30.3167 9.56967 28.7011V14.6474C9.56967 14.4193 9.75462 14.2089 9.98386 14.179L15.4404 13.4526C15.6685 13.4227 15.8546 13.5832 15.8546 13.8114V30.3765H15.8535Z" fill="white"/>
<path d="M54.5753 10.0053C54.2852 9.47047 53.8499 9.03305 53.2696 8.6942C52.6882 8.35534 51.9085 8.18591 50.9284 8.18591C50.1122 8.18591 49.3591 8.27561 48.6703 8.45279C47.9803 8.63108 47.3723 8.89463 46.8463 9.24235C46.3202 9.59006 45.8839 10.023 45.5406 10.5402V8.73738C45.5406 8.55245 45.3911 8.40296 45.2061 8.40296H41.2203C41.0354 8.40296 40.8859 8.55245 40.8859 8.73738V22.1931C40.8859 22.378 41.0354 22.5275 41.2203 22.5275H45.7233C45.9083 22.5275 46.0578 22.378 46.0578 22.1931V14.6341C46.2206 14.2565 46.4387 13.9221 46.7112 13.6298C46.9825 13.3385 47.2826 13.1104 47.6093 12.9476C47.936 12.7848 48.2439 12.7029 48.5341 12.7029C48.9516 12.7029 49.3193 12.8579 49.6371 13.168C49.955 13.478 50.1133 13.9775 50.1133 14.6685V22.1931C50.1133 22.378 50.2628 22.5275 50.4478 22.5275H54.9497C55.1346 22.5275 55.2841 22.378 55.2841 22.1931V13.2699C55.2841 12.7882 55.2387 12.2577 55.1479 11.6786C55.0571 11.0994 54.8666 10.5413 54.5764 10.0064L54.5753 10.0053Z" fill="white"/>
<path d="M84.4581 7.94117C83.6053 7.94117 82.798 8.19919 82.036 8.71633C81.2741 9.23347 80.6384 9.9732 80.1312 10.9344V8.73737C80.1312 8.55244 79.9817 8.40295 79.7967 8.40295H75.7301C75.5451 8.40295 75.3956 8.55244 75.3956 8.73737V22.1931C75.3956 22.378 75.5451 22.5275 75.7301 22.5275H80.2331C80.418 22.5275 80.5675 22.378 80.5675 22.1931V14.1712C80.5675 14.0849 80.5963 13.9996 80.6528 13.9343C81.0504 13.4802 81.6307 13.1514 82.3904 12.9487C83.1169 12.7549 83.9165 12.6475 84.787 12.6254C84.9664 12.6209 85.1115 12.4781 85.1115 12.2987V7.96775C85.0395 7.95003 84.962 7.94006 84.8811 7.94006H84.4592L84.4581 7.94117Z" fill="white"/>
<path d="M98.0666 9.2047C96.9049 8.52588 95.4718 8.18591 93.7663 8.18591C92.0608 8.18591 90.6277 8.5292 89.466 9.21466C88.3042 9.90123 87.4238 10.8104 86.8258 11.941C86.2266 13.0727 85.9276 14.3152 85.9276 15.6695C85.9276 16.6163 86.1004 17.52 86.4448 18.3771C86.7892 19.2353 87.2931 19.9949 87.9554 20.656C88.6177 21.3171 89.4394 21.8398 90.4184 22.2252C91.3974 22.6083 92.5137 22.801 93.7663 22.801C94.9269 22.801 95.9702 22.6327 96.896 22.2972C97.8208 21.9616 98.6248 21.5032 99.3048 20.9229C99.9848 20.3426 100.516 19.6705 100.897 18.9097L96.7875 17.7348C96.6457 17.6949 96.4863 17.7481 96.4187 17.8787C96.236 18.2276 95.937 18.5077 95.5228 18.7181C95.0233 18.9728 94.4928 19.0991 93.9302 19.0991C93.5304 19.0991 93.145 19.0304 92.774 18.8931C92.4008 18.7547 92.0929 18.5354 91.8482 18.2342C91.6034 17.933 91.4628 17.541 91.4262 17.0582H101.469C101.505 16.8445 101.537 16.5986 101.564 16.3218C101.592 16.0449 101.605 15.7725 101.605 15.5045C101.605 14.2001 101.305 12.9941 100.707 11.8868C100.108 10.7794 99.2272 9.88573 98.0666 9.20691V9.2047ZM91.3166 13.9553C91.3708 13.5124 91.5026 13.1381 91.7119 12.8313C91.9201 12.5246 92.1915 12.2865 92.5281 12.116C92.8637 11.9454 93.2491 11.8602 93.6843 11.8602C94.1196 11.8602 94.505 11.9454 94.8417 12.116C95.1761 12.2865 95.4497 12.5257 95.6579 12.8313C95.8661 13.1381 95.9979 13.5124 96.0532 13.9553H91.3177H91.3166Z" fill="white"/>
<path d="M112.682 14.7681C111.902 14.406 110.895 14.0472 109.661 13.6929C109.243 13.5689 108.899 13.4581 108.626 13.3607C108.354 13.2632 108.155 13.1569 108.027 13.0417C107.9 12.9266 107.837 12.7804 107.837 12.6032C107.837 12.426 107.882 12.2843 107.973 12.178C108.064 12.0717 108.196 11.992 108.368 11.9388C108.541 11.8856 108.745 11.8591 108.981 11.8591C109.47 11.8591 110.028 11.9776 110.654 12.2134C111.213 12.4249 111.886 12.766 112.67 13.2377C112.826 13.3319 113.032 13.2865 113.127 13.1314L114.755 10.5081C114.845 10.363 114.814 10.1681 114.681 10.0607C113.846 9.38409 112.984 8.90903 112.096 8.6344C111.125 8.33541 110.159 8.18591 109.197 8.18591C107.908 8.18591 106.807 8.39964 105.89 8.82708C104.974 9.25453 104.271 9.83811 103.781 10.5767C103.291 11.3153 103.046 12.1658 103.046 13.1281C103.046 13.9476 103.232 14.602 103.604 15.0915C103.975 15.5809 104.538 15.9951 105.292 16.334C106.044 16.6728 106.984 17.0382 108.109 17.4292C108.544 17.5532 108.903 17.6695 109.183 17.7758C109.465 17.8832 109.669 17.9895 109.796 18.0958C109.923 18.2032 109.986 18.3361 109.986 18.4967C109.986 18.7037 109.896 18.851 109.714 18.9385C109.532 19.026 109.251 19.0703 108.87 19.0703C108.199 19.0703 107.45 18.9075 106.625 18.5808C105.892 18.2907 105.133 17.9009 104.349 17.4103C104.189 17.3096 103.975 17.3605 103.883 17.5255L102.418 20.1621C102.339 20.3039 102.367 20.4833 102.489 20.5896C103.284 21.2795 104.235 21.811 105.346 22.1875C106.552 22.5962 107.783 22.7999 109.034 22.7999C110.867 22.7999 112.313 22.3846 113.375 21.5519C114.437 20.7203 114.968 19.5697 114.968 18.0991C114.968 17.2675 114.782 16.5953 114.41 16.0815C114.038 15.5677 113.462 15.1302 112.681 14.767L112.682 14.7681Z" fill="white"/>
<path d="M126.317 14.7681C125.538 14.406 124.53 14.0472 123.296 13.6929C122.879 13.5689 122.534 13.4581 122.262 13.3607C121.989 13.2632 121.79 13.1569 121.663 13.0417C121.535 12.9266 121.472 12.7804 121.472 12.6032C121.472 12.426 121.518 12.2843 121.608 12.178C121.699 12.0717 121.831 11.992 122.004 11.9388C122.176 11.8856 122.38 11.8591 122.616 11.8591C123.106 11.8591 123.664 11.9776 124.29 12.2134C124.849 12.4249 125.521 12.766 126.305 13.2377C126.461 13.3319 126.667 13.2865 126.763 13.1314L128.391 10.5081C128.48 10.363 128.449 10.1681 128.316 10.0607C127.481 9.38409 126.62 8.90903 125.731 8.6344C124.76 8.33541 123.795 8.18591 122.832 8.18591C121.543 8.18591 120.442 8.39964 119.525 8.82708C118.609 9.25453 117.906 9.83811 117.417 10.5767C116.926 11.3153 116.681 12.1658 116.681 13.1281C116.681 13.9476 116.867 14.602 117.239 15.0915C117.61 15.5809 118.173 15.9951 118.927 16.334C119.679 16.6728 120.619 17.0382 121.745 17.4292C122.18 17.5532 122.539 17.6695 122.819 17.7758C123.1 17.8832 123.304 17.9895 123.431 18.0958C123.559 18.2032 123.622 18.3361 123.622 18.4967C123.622 18.7037 123.531 18.851 123.349 18.9385C123.168 19.026 122.886 19.0703 122.505 19.0703C121.834 19.0703 121.086 18.9075 120.261 18.5808C119.527 18.2907 118.769 17.9009 117.985 17.4103C117.824 17.3096 117.61 17.3605 117.518 17.5255L116.053 20.1621C115.975 20.3039 116.002 20.4833 116.124 20.5896C116.919 21.2795 117.871 21.811 118.981 22.1875C120.187 22.5962 121.418 22.7999 122.669 22.7999C124.502 22.7999 125.949 22.3846 127.011 21.5519C128.073 20.7203 128.603 19.5697 128.603 18.0991C128.603 17.2675 128.417 16.5953 128.045 16.0815C127.673 15.5677 127.097 15.1302 126.316 14.767L126.317 14.7681Z" fill="white"/>
<path d="M68.292 10.5266C67.8379 9.74595 67.2166 9.16126 66.4281 8.77146C65.6385 8.38166 64.7359 8.18677 63.7192 8.18677C62.7026 8.18677 61.841 8.36838 61.0248 8.7327C60.2074 9.09592 59.5042 9.61417 58.915 10.2875C58.3247 10.9596 57.8674 11.7459 57.5406 12.6462C57.2139 13.5453 57.0511 14.5309 57.0511 15.6039C57.0511 16.677 57.2007 17.5673 57.4997 18.4399C57.7987 19.3125 58.2206 20.0766 58.7655 20.73C59.3104 21.3844 59.9671 21.8938 60.7379 22.257C61.5098 22.6203 62.357 22.8019 63.2829 22.8019C64.2087 22.8019 65.0382 22.6158 65.8279 22.2449C66.6164 21.8728 67.2111 21.3147 67.6109 20.5705V21.4963C67.6109 22.349 67.4481 23.0023 67.1214 23.4585C66.7936 23.9137 66.3639 24.2448 65.8279 24.4519C65.293 24.6578 64.7071 24.7619 64.0725 24.7619C63.2375 24.7619 62.4534 24.5936 61.718 24.2581C61.0879 23.9701 60.5341 23.6258 60.059 23.2249C59.9261 23.113 59.7323 23.1175 59.6116 23.2437L57.3413 25.6046C57.2117 25.7397 57.2128 25.9612 57.3491 26.0908C58.1619 26.8626 59.0834 27.4628 60.1133 27.8913C61.2474 28.3631 62.5664 28.599 64.0736 28.599C65.8157 28.599 67.3396 28.2978 68.6464 27.6953C69.9521 27.0929 70.9688 26.2436 71.6941 25.1484C72.4195 24.0521 72.7828 22.7664 72.7828 21.2925V8.74045C72.7828 8.55552 72.6333 8.40603 72.4483 8.40603H68.6264C68.4415 8.40603 68.292 8.55552 68.292 8.74045V10.5289V10.5266ZM67.5766 15.6571C67.5766 17.0269 66.4658 18.1376 65.0958 18.1376C63.7259 18.1376 62.6151 17.0269 62.6151 15.6571C62.6151 14.2873 63.7259 13.1766 65.0958 13.1766C66.4658 13.1766 67.5766 14.2873 67.5766 15.6571Z" fill="white"/>
<path d="M35.7992 5.98251C37.1693 5.98251 38.28 4.87195 38.28 3.502C38.28 2.13205 37.1693 1.02148 35.7992 1.02148C34.4291 1.02148 33.3185 2.13205 33.3185 3.502C33.3185 4.87195 34.4291 5.98251 35.7992 5.98251Z" fill="white"/>
<path d="M144.947 12.7228C144.612 11.8391 144.112 11.0584 143.451 10.3807C142.789 9.70301 141.971 9.16815 141.001 8.77504C140.031 8.38303 138.9 8.18591 137.614 8.18591C136.327 8.18591 135.218 8.38192 134.238 8.77504C133.259 9.16815 132.437 9.70301 131.775 10.3807C131.113 11.0584 130.614 11.8391 130.279 12.7228C129.943 13.6065 129.775 14.5301 129.775 15.4935C129.775 16.4569 129.943 17.376 130.279 18.2508C130.614 19.1245 131.114 19.9063 131.775 20.5929C132.437 21.2806 133.259 21.8199 134.238 22.2119C135.218 22.6039 136.343 22.7999 137.614 22.7999C138.884 22.7999 140.031 22.6039 141.001 22.2119C141.971 21.8199 142.789 21.2795 143.451 20.5929C144.113 19.9063 144.612 19.1256 144.947 18.2508C145.283 17.376 145.451 16.4569 145.451 15.4935C145.451 14.5301 145.283 13.6065 144.947 12.7228ZM138.005 17.943C136.329 18.1999 134.906 16.7769 135.163 15.1003C135.323 14.0561 136.176 13.2023 137.22 13.0428C138.896 12.7859 140.319 14.2089 140.062 15.8855C139.902 16.9297 139.049 17.7835 138.005 17.943Z" fill="white"/>
<path d="M38.0051 22.3748H35.6251C34.3183 22.3748 33.2596 21.3161 33.2596 20.0094V8.64998C33.2596 8.46505 33.4091 8.31555 33.594 8.31555H38.004C38.1889 8.31555 38.3384 8.46505 38.3384 8.64998V22.0403C38.3384 22.2253 38.1889 22.3748 38.004 22.3748H38.0051Z" fill="white"/>
<path d="M111.234 34.9801C110.334 34.9801 109.54 34.8416 108.852 34.5626C108.164 34.2846 107.582 33.9015 107.107 33.4153C106.63 32.9292 106.271 32.3755 106.027 31.7554C105.782 31.1353 105.66 30.4841 105.66 29.8009C105.66 28.8906 105.875 28.0402 106.307 27.2495C106.738 26.4588 107.368 25.8232 108.198 25.3426C109.027 24.862 110.039 24.6217 111.235 24.6217C112.431 24.6217 113.486 24.8786 114.321 25.3935C115.064 25.8509 115.64 26.4256 116.047 27.1166C116.126 27.2495 116.052 27.4222 115.904 27.4665L112.623 28.4599C112.456 28.2162 112.253 28.0291 112.015 27.9006C111.777 27.7722 111.51 27.708 111.214 27.708C110.88 27.708 110.578 27.7921 110.307 27.9582C110.037 28.1243 109.822 28.3624 109.661 28.6714C109.5 28.9803 109.419 29.3568 109.419 29.8009C109.419 30.2449 109.499 30.6071 109.661 30.9215C109.821 31.236 110.037 31.4774 110.307 31.6436C110.578 31.8108 110.88 31.8938 111.214 31.8938C111.42 31.8938 111.606 31.865 111.774 31.8063C111.941 31.7488 112.098 31.6613 112.246 31.5461C112.395 31.4309 112.52 31.2958 112.623 31.1419L116.191 32.2216C115.921 32.7609 115.551 33.2371 115.083 33.649C114.613 34.0609 114.061 34.3854 113.424 34.6235C112.787 34.8616 112.057 34.9801 111.234 34.9801Z" fill="white"/>
<path d="M145.214 34.7871H142.023C141.893 34.7871 141.786 34.6808 141.786 34.5502V29.217C141.786 28.7276 141.687 28.3732 141.487 28.154C141.288 27.9347 141.047 27.824 140.763 27.824C140.48 27.824 140.172 27.9557 139.837 28.2193C139.503 28.4829 139.259 28.8217 139.104 29.2348V34.549C139.104 34.6797 138.998 34.786 138.867 34.786H135.677C135.546 34.786 135.44 34.6797 135.44 34.549V29.2159C135.44 28.7265 135.34 28.3721 135.141 28.1529C134.941 27.9336 134.7 27.8229 134.417 27.8229C134.135 27.8229 133.826 27.9502 133.492 28.206C133.157 28.4618 132.912 28.7896 132.758 29.1916V34.5479C132.758 34.6786 132.652 34.7849 132.521 34.7849H129.331C129.2 34.7849 129.094 34.6786 129.094 34.5479V25.0124C129.094 24.8817 129.2 24.7754 129.331 24.7754H132.155C132.285 24.7754 132.392 24.8817 132.392 25.0124V26.2903C132.752 25.7465 133.247 25.3324 133.877 25.0489C134.507 24.7643 135.252 24.6226 136.114 24.6226C136.976 24.6226 137.58 24.7997 138.004 25.153C138.429 25.5073 138.711 25.9049 138.853 26.3478C139.213 25.8041 139.708 25.3811 140.338 25.0777C140.968 24.7743 141.675 24.6226 142.46 24.6226C143.129 24.6226 143.663 24.7422 144.061 24.9825C144.46 25.2228 144.759 25.5328 144.958 25.9115C145.158 26.2914 145.289 26.6856 145.354 27.0964C145.418 27.5073 145.45 27.8838 145.45 28.2248V34.549C145.45 34.6797 145.344 34.786 145.213 34.786L145.214 34.7871Z" fill="white"/>
<path d="M127.446 27.8384C127.208 27.2127 126.855 26.659 126.385 26.1784C125.915 25.6978 125.336 25.3191 124.648 25.04C123.961 24.7621 123.16 24.6226 122.247 24.6226C121.335 24.6226 120.55 24.7621 119.855 25.04C119.161 25.318 118.578 25.6978 118.11 26.1784C117.64 26.659 117.287 27.2116 117.049 27.8384C116.811 28.464 116.692 29.1185 116.692 29.8017C116.692 30.485 116.811 31.1361 117.049 31.7563C117.287 32.3753 117.64 32.929 118.11 33.4162C118.58 33.9034 119.161 34.2855 119.855 34.5634C120.55 34.8414 121.347 34.9809 122.247 34.9809C123.148 34.9809 123.961 34.8425 124.648 34.5634C125.336 34.2855 125.915 33.9023 126.385 33.4162C126.855 32.9301 127.208 32.3764 127.446 31.7563C127.684 31.1361 127.804 30.485 127.804 29.8017C127.804 29.1185 127.684 28.4651 127.446 27.8384ZM122.525 31.5381C121.337 31.7197 120.329 30.712 120.511 29.5238C120.624 28.7841 121.23 28.1783 121.969 28.0654C123.158 27.8838 124.166 28.8915 123.984 30.0797C123.871 30.8194 123.265 31.4251 122.525 31.5381Z" fill="white"/>
<path d="M102.843 34.7709C103.814 34.7709 104.601 33.9841 104.601 33.0135C104.601 32.0429 103.814 31.2561 102.843 31.2561C101.873 31.2561 101.086 32.0429 101.086 33.0135C101.086 33.9841 101.873 34.7709 102.843 34.7709Z" fill="white"/>
</svg>
